<svg enable-background="new 0 0 707.1 200" height="200" viewBox="0 0 707.1 200" width="707.1" xmlns="http://www.w3.org/2000/svg"><path d="m0 150v-100l86.6-50 86.6 50v100l-86.6 50z" fill="#61dafb"/><path d="m86.6 133.3-28.9-16.6v-33.4l28.9-16.6 28.9 16.6 28.8-16.6-57.7-33.4-57.7 33.4v66.6l57.7 33.4 57.7-33.4-28.8-16.6z" fill="#fff"/><path d="m0 50 86.6 50v-100z" opacity=".04" stroke="#fff" stroke-miterlimit="10"/><path d="m0 150 86.6 50v-100z" opacity=".04" stroke="#fff" stroke-miterlimit="10"/><path d="m86.6 100 86.6 50v-100z" opacity=".08" stroke="#fff" stroke-miterlimit="10"/><path d="m86.6 100-86.6-50v100z" fill="none"/><path d="m173.2 150-86.6-50v100z" opacity=".08" stroke="#fff" stroke-miterlimit="10"/><path d="m173.2 50-86.6-50v100z" opacity=".08" stroke="#fff" stroke-miterlimit="10"/><g fill="#333"><path d="m290.4 127.3c1 0 1.8.4 2.6 1.1l7.2 7.8c-4 4.9-8.8 8.7-14.6 11.3s-12.7 3.9-20.8 3.9c-7.2 0-13.8-1.2-19.5-3.7-5.8-2.5-10.7-5.9-14.8-10.3s-7.2-9.7-9.4-15.8-3.3-12.8-3.3-20c0-7.3 1.2-14.1 3.6-20.1 2.4-6.1 5.8-11.4 10.3-15.8 4.4-4.4 9.7-7.8 15.8-10.3s12.9-3.7 20.4-3.7c7.2 0 13.6 1.2 19 3.5s10.1 5.4 13.9 9.2l-6.1 8.4c-.4.5-.8 1-1.4 1.4s-1.3.6-2.3.6-2.1-.4-3.2-1.2-2.5-1.7-4.1-2.6c-1.7-.9-3.8-1.8-6.3-2.6s-5.8-1.2-9.7-1.2c-4.6 0-8.8.8-12.7 2.4-3.8 1.6-7.2 3.9-9.9 6.9s-4.9 6.6-6.5 10.8c-1.6 4.3-2.3 9-2.3 14.3 0 5.5.8 10.4 2.3 14.6 1.6 4.3 3.7 7.9 6.3 10.8 2.7 2.9 5.8 5.2 9.4 6.7 3.6 1.6 7.5 2.3 11.6 2.3 2.5 0 4.7-.1 6.7-.4s3.8-.7 5.5-1.3 3.3-1.3 4.8-2.3c1.5-.9 3-2.1 4.5-3.4.4-.4.9-.7 1.4-1 .5-.2 1.1-.3 1.6-.3z"/><path d="m407.5 101.5c0 7.2-1.2 13.8-3.6 19.9s-5.7 11.4-10.1 15.8c-4.3 4.5-9.5 7.9-15.6 10.4s-12.8 3.7-20.2 3.7-14.1-1.2-20.2-3.7-11.3-6-15.7-10.4c-4.3-4.5-7.7-9.7-10.1-15.8s-3.6-12.7-3.6-19.9 1.2-13.8 3.6-19.9 5.7-11.4 10.1-15.8c4.3-4.5 9.6-7.9 15.7-10.4s12.8-3.7 20.2-3.7 14.1 1.3 20.2 3.8 11.3 6 15.6 10.4 7.7 9.7 10.1 15.8c2.4 6 3.6 12.6 3.6 19.8zm-18.6 0c0-5.4-.7-10.2-2.1-14.4-1.4-4.3-3.5-7.9-6.1-10.8-2.7-3-5.9-5.2-9.7-6.8s-8.1-2.4-12.9-2.4-9.1.8-12.9 2.4-7.1 3.8-9.8 6.8-4.7 6.6-6.2 10.8c-1.4 4.3-2.2 9.1-2.2 14.4 0 5.4.7 10.2 2.2 14.4 1.4 4.3 3.5 7.9 6.2 10.8s5.9 5.2 9.8 6.8c3.8 1.6 8.1 2.4 12.9 2.4s9.1-.8 12.9-2.4 7-3.8 9.7-6.8c2.7-2.9 4.7-6.5 6.1-10.8 1.4-4.2 2.1-9 2.1-14.4z"/><path d="m440.6 112.2v38.1h-18.2v-97.6h29.8c6.7 0 12.4.7 17.1 2.1s8.6 3.3 11.7 5.8c3 2.5 5.3 5.4 6.7 8.9 1.4 3.4 2.1 7.2 2.1 11.4 0 3.3-.5 6.4-1.5 9.3s-2.4 5.6-4.2 8-4.1 4.5-6.8 6.3-5.7 3.2-9.1 4.3c2.3 1.3 4.3 3.2 5.9 5.6l24.4 36h-16.3c-1.6 0-2.9-.3-4-.9s-2-1.5-2.8-2.7l-20.5-31.3c-.8-1.2-1.6-2-2.5-2.5s-2.3-.7-4.1-.7h-7.7zm0-13.1h11.3c3.4 0 6.4-.4 8.9-1.3s4.6-2 6.3-3.5c1.6-1.5 2.9-3.3 3.7-5.4s1.2-4.3 1.2-6.8c0-4.9-1.6-8.8-4.9-11.4-3.3-2.7-8.2-4-15-4h-11.6v32.4z"/><path d="m571.8 52.7v14.4h-43.3v27.1h34.1v14h-34.1v27.6h43.3v14.5h-61.6v-97.6z"/></g><path d="m626.8 135.7c3.5 0 6.6-.6 9.4-1.8s5.1-2.8 7-4.9 3.4-4.7 4.4-7.7 1.5-6.4 1.5-10.1v-58.5h18.2v58.5c0 5.8-.9 11.2-2.8 16.1s-4.6 9.2-8.1 12.8-7.8 6.4-12.8 8.4-10.6 3-16.9 3-11.9-1-16.9-3-9.2-4.8-12.7-8.4-6.2-7.8-8-12.8c-1.9-4.9-2.8-10.3-2.8-16.1v-58.5h18.2v58.4c0 3.7.5 7.1 1.5 10.1s2.5 5.6 4.4 7.7 4.2 3.8 7 5c2.7 1.2 5.9 1.8 9.4 1.8z" fill="#61dafb"/><path d="m706.2 150.3h-18.2v-97.6h18.2z" fill="#61dafb"/></svg>