<svg enable-background="new 0 0 173.2 200" height="200" viewBox="0 0 173.2 200" width="173.2" xmlns="http://www.w3.org/2000/svg"><path d="m0 150v-100l86.6-50 86.6 50v100l-86.6 50z" fill="#61dafb"/><path d="m86.6 133.3-28.9-16.6v-33.4l28.9-16.6 28.9 16.6 28.8-16.6-57.7-33.4-57.7 33.4v66.6l57.7 33.4 57.7-33.4-28.8-16.6z" fill="#fff"/><g stroke="#fff" stroke-miterlimit="10"><path d="m0 50 86.6 50v-100z" opacity=".04"/><path d="m0 150 86.6 50v-100z" opacity=".04"/><path d="m86.6 100 86.6 50v-100z" opacity=".08"/></g><path d="m86.6 100-86.6-50v100z" fill="none"/><path d="m173.2 150-86.6-50v100z" opacity=".08" stroke="#fff" stroke-miterlimit="10"/><path d="m173.2 50-86.6-50v100z" opacity=".08" stroke="#fff" stroke-miterlimit="10"/></svg>